<svg width="24" height="24" viewBox="0 0 24 24" fill="none" xmlns="http://www.w3.org/2000/svg">
<circle cx="12" cy="12" r="10" fill="#00C386"/>
<path fill-rule="evenodd" clip-rule="evenodd" d="M15.7333 11.2896L17.3565 12.4017L15.1304 19.3987H9.42606L6.73623 17.6842H13.6927L15.7333 11.2896ZM14.0173 7.11921L20 11.4286L18.2376 17.1745L15.8724 18.9353L18.0057 12.2164L12.4869 8.324C13.0484 7.8897 13.4559 7.55353 14.0173 7.11921ZM4.88116 8.60203L7.29274 15.2746H13.8318L13.3217 17.0818H5.90143L4 11.4286L4.88116 8.60203ZM13.0434 4.19995L7.43187 8.41667L9.42606 14.6722H7.61737L5.29855 7.81428L10.2145 4.19995H13.0434ZM14.0173 4.19995L18.9333 7.81428L19.8609 10.6872L14.0173 6.42416C14.0173 6.42416 10.7567 8.94341 8.63767 10.4092L8.03477 8.60203L14.0173 4.19995Z" fill="white"/>
</svg>
