<svg xmlns="http://www.w3.org/2000/svg" width="60" height="60" viewBox="0 0 60 60" fill="none">
  <circle cx="30" cy="30" r="30" fill="#DFFBE9"/>
  <rect x="18.6628" y="23.843" width="8.16279" height="20.407" rx="2" fill="#00C386"/>
  <path d="M21.9883 15.8729C22.387 15.4124 23.1013 15.4124 23.5001 15.8729L31.915 25.5895C32.4759 26.2372 32.0158 27.2442 31.1591 27.2442H14.3293C13.4726 27.2442 13.0125 26.2372 13.5734 25.5895L21.9883 15.8729Z" fill="#00C386"/>
  <path d="M18.6628 27.2441H26.8256V28.6046L18.6628 30.6453V27.2441Z" fill="#039954"/>
  <rect x="41.8254" y="35.407" width="8.16279" height="20.407" rx="2" transform="rotate(-180 41.8254 35.407)" fill="#00C386"/>
  <path d="M38.5 43.3771C38.1013 43.8376 37.3869 43.8376 36.9882 43.3771L28.5733 33.6605C28.0124 33.0128 28.4725 32.0058 29.3292 32.0058L46.159 32.0058C47.0157 32.0058 47.4758 33.0128 46.9149 33.6605L38.5 43.3771Z" fill="#00C386"/>
  <path d="M41.8254 32.0059L33.6626 32.0059L33.6626 30.6454L41.8254 28.6047L41.8254 32.0059Z" fill="#039954"/>
</svg>