<svg width="16" height="16" viewBox="0 0 16 16" fill="none" xmlns="http://www.w3.org/2000/svg">
<path d="M12.2424 7.95656C11.7967 7.61681 11.1618 7.48093 11.1618 7.48093C11.1618 7.48093 11.6991 7.16565 11.9186 6.85069C12.1385 6.5356 12.2483 6.04742 12.2667 5.79413C12.2849 5.54071 12.3277 4.47816 11.5096 3.86658C10.8768 3.39336 10.1516 3.2055 9.17781 3.14439V1H7.8714V3.11905C7.57991 3.11905 7.23927 3.11905 6.87634 3.11905V1H5.57006V3.11905C4.23649 3.11905 3 3.11905 3 3.11905V4.49206C3 4.49206 3.5494 4.49206 3.75541 4.49206C3.96136 4.49206 4.32765 4.51523 4.48329 4.69153C4.63898 4.86752 4.66646 4.96028 4.66646 5.30299C4.66646 5.64582 4.66652 10.6442 4.66652 10.7739C4.66652 10.9037 4.6421 11.0642 4.53213 11.1693C4.42235 11.2744 4.31251 11.299 4.0499 11.299C3.78735 11.299 3.26859 11.299 3.26859 11.299L3 12.8869C3 12.8869 4.27722 12.8869 5.57006 12.8869V15H6.8764V12.8869C7.2778 12.8869 7.62729 12.8869 7.87147 12.8869V15H9.17787V12.8521C9.51558 12.8321 9.83046 12.8062 10.0141 12.7819C10.3866 12.7326 11.2289 12.6337 12.0166 12.0776C12.804 11.5215 12.9809 10.6503 12.9993 9.77306C13.0178 8.89577 12.6877 8.29637 12.2424 7.95656ZM6.87634 4.61423C6.87634 4.61423 7.29141 4.57721 7.70044 4.58327C8.10959 4.58939 8.46959 4.60181 9.00696 4.76865C9.54409 4.93556 9.86129 5.34334 9.87375 5.82527C9.8859 6.30721 9.67812 6.62835 9.31201 6.83227C8.94578 7.03613 8.43937 7.14736 7.96299 7.16571C7.48692 7.18431 6.87634 7.16571 6.87634 7.16571V4.61423ZM9.80042 10.9345C9.50129 11.1014 8.90298 11.2496 8.32317 11.2928C7.74318 11.3361 6.87634 11.3176 6.87634 11.3176V8.48162C6.87634 8.48162 7.70661 8.43849 8.35376 8.48162C9.0008 8.52507 9.54409 8.69173 9.78814 8.8155C10.0323 8.93896 10.4598 9.21074 10.4598 9.85958C10.4598 10.5082 10.0994 10.7677 9.80042 10.9345Z" fill="#FCBF78"/>
</svg>
