<?xml version="1.0" encoding="UTF-8"?>
<svg width="20px" height="20px" viewBox="0 0 20 20" version="1.1" xmlns="http://www.w3.org/2000/svg" xmlns:xlink="http://www.w3.org/1999/xlink">
    <title>stocks</title>
    <g id="Homepage" stroke="none" stroke-width="1" fill="none" fill-rule="evenodd">
        <g id="Market-List-Export" transform="translate(-31.000000, -1553.000000)" fill="#000000">
            <g id="stocks-copy" transform="translate(20.000000, 1543.000000)">
                <g id="stocks" transform="translate(11.000000, 10.000000)">
                    <path d="M10,20 C7.34758577,20 4.80468526,18.9461882 2.92886191,17.0711381 C1.05392634,15.1950856 0,12.6522138 0,10 C0,7.34778624 1.05381179,4.80468526 2.92886191,2.92886191 C4.80491437,1.05392634 7.34778624,0 10,0 C12.6522138,0 15.1953147,1.05381179 17.0711381,2.92886191 C18.9460737,4.80491437 20,7.34778624 20,10 C19.9921702,12.6501804 18.9361361,15.1884415 17.0622602,17.0622602 C15.1884415,18.9360788 12.6502091,19.9919812 10,20 Z M10,1.00226244 C7.61383814,1.00226244 5.32504725,1.95099948 3.63795177,3.63798041 C1.95085629,5.32496134 1.00231972,7.61386677 1.00231972,10.0000286 C1.00231972,12.3861905 1.95097085,14.6749814 3.63795177,16.3620769 C5.3249327,18.0491723 7.61383814,18.9977089 10,18.9977089 C12.3861619,18.9977089 14.6749527,18.0490578 16.3620482,16.3620769 C18.0491437,14.6750959 18.9976803,12.3861905 18.9976803,10.0000286 C18.9898505,7.61610058 18.0389484,5.33280829 16.3530844,3.64685835 C14.6672203,1.96099433 12.3840713,1.0101094 9.99991408,1.00226244 L10,1.00226244 Z" id="Fill-1"></path>
                    <polygon id="Fill-2" points="3.55060427 13.6995246 2.80442752 13.0495733 6.84961911 8.40154075 12.3502205 10.400653 16.5262902 6.30190733 17.1952575 7.01675354 12.6488917 11.6166733 7.14829028 9.61756114"></polygon>
                </g>
            </g>
        </g>
    </g>
</svg>