<svg width="131" height="20" viewBox="0 0 131 20" fill="none" xmlns="http://www.w3.org/2000/svg">
<path d="M47.8677 11.4053C47.9635 12.7715 48.2979 13.8579 48.8696 14.665C49.5639 15.6346 50.5235 16.1191 51.7495 16.1191C52.9903 16.1191 53.943 15.6456 54.6079 14.6982C55.1698 13.906 55.4963 12.8083 55.5884 11.4053H58.3901C58.3078 12.6382 58.0444 13.7435 57.5991 14.7207C57.0526 15.9123 56.2689 16.8297 55.2495 17.4736C54.2379 18.1101 53.0713 18.4287 51.7495 18.4287C50.4423 18.4287 49.2751 18.1101 48.2485 17.4736C47.2296 16.8297 46.4395 15.9155 45.8784 14.7314C45.4183 13.7478 45.1469 12.6391 45.064 11.4053H47.8677ZM32.6089 10.8379L31.4487 14.3027L28.187 5.76172L28.4644 12.8779V18.207H25.6724V2.04199H29.3062L32.6089 10.8379ZM42.2231 18.207H39.4312V12.8779L39.7085 5.75L34.9438 18.207H32.939L32.937 18.2002L36.23 8.36914L38.6001 2.04199H42.2231V18.207ZM66.8813 2.04199C68.7425 2.04199 70.1794 2.46052 71.1909 3.29688C72.2029 4.13313 72.7084 5.34312 72.7085 6.92676C72.7085 8.00736 72.4465 8.91474 71.9224 9.64746C71.4055 10.3726 70.6818 10.931 69.7515 11.3232L73.3735 18.0625V18.207H70.769L66.5972 9.72461H66.8931C67.8379 9.72455 68.5762 9.48805 69.1079 9.01465C69.6394 8.53367 69.9057 7.87854 69.9058 7.0498C69.9058 6.18386 69.6583 5.51374 69.1636 5.04004C68.6763 4.56637 67.9451 4.32241 66.9702 4.30762H64.0122V9.72461H64.2192L65.3276 11.9785H64.0122V18.207H61.2104V2.04199H66.8813ZM81.5376 2.04199C83.3395 2.04199 84.7685 2.51226 85.8247 3.45215C86.8881 4.39213 87.4204 5.63575 87.4204 7.18262C87.4204 8.76647 86.8994 9.99916 85.8579 10.8799C84.8241 11.7605 83.3727 12.2002 81.5044 12.2002H78.1704V18.207H75.3677V10.0449H80.3735C81.0499 10.0449 81.6087 9.99918 82.0542 9.92383C82.8013 9.85486 83.3901 9.62923 83.8198 9.24707C84.3441 8.77346 84.6059 8.0929 84.606 7.20508C84.606 6.33172 84.3407 5.63529 83.8091 5.11719C83.2773 4.59169 82.5453 4.32241 81.6147 4.30762H78.1704V7.90723H75.3677V2.04199H81.5376ZM92.6821 8.77051H97.9116V11.0234H92.6821V18.207H89.8794V2.04199H92.6821V8.77051ZM102.685 18.207H100.045V2.04199H102.685V18.207ZM108.811 15.9639H116.554V18.207H106.008V12.96H108.811V15.9639ZM124.508 2.04199C126.369 2.04199 127.806 2.46052 128.818 3.29688C129.829 4.13313 130.335 5.34316 130.335 6.92676C130.335 8.00736 130.073 8.91474 129.548 9.64746C129.031 10.3726 128.308 10.931 127.377 11.3232L131 18.0625V18.207H128.348L124.177 9.72461H124.52C125.465 9.72453 126.203 9.48807 126.735 9.01465C127.266 8.53367 127.533 7.87854 127.533 7.0498C127.533 6.18395 127.285 5.51373 126.791 5.04004C126.303 4.5664 125.572 4.32245 124.597 4.30762H121.639V9.72461H121.798L122.907 11.9785H121.639V18.207H118.836V2.04199H124.508ZM108.811 8.77051H115.436V10.8223H106.008V6.35254H108.811V8.77051ZM51.7271 1.82031C53.0415 1.82031 54.2054 2.13888 55.2173 2.77539C56.2362 3.40444 57.0228 4.3145 57.5767 5.50586C58.0855 6.59403 58.3633 7.84821 58.4106 9.26758H55.6089C55.5574 7.68775 55.2197 6.4599 54.5962 5.58398C53.9241 4.62926 52.9678 4.15137 51.7271 4.15137C50.5161 4.15146 49.5669 4.62931 48.8804 5.58398C48.2468 6.46749 47.9021 7.6954 47.8462 9.26758H45.0444C45.0933 7.87802 45.3677 6.63914 45.8677 5.55078C46.4289 4.34437 47.2154 3.42265 48.2271 2.78613C49.246 2.14238 50.4127 1.82037 51.7271 1.82031ZM116.477 4.21484H106.008V2.04199H116.477V4.21484Z" fill="#333333"/>
<path d="M17.5586 10.793L14.6318 20H7.13281L3.59668 17.7441H12.7422L15.4248 9.3291L17.5586 10.793ZM21.0342 9.51172L18.7168 17.0732L15.6074 19.3906L18.4121 10.5488L11.1572 5.42676C11.8952 4.85536 12.431 4.4132 13.1689 3.8418L21.0342 9.51172ZM4.3291 14.5732H12.9248L12.2549 16.9512H2.5L0 9.51172L1.1582 5.79297L4.3291 14.5732ZM4.51172 5.54883L7.13281 13.7803H4.75586L1.70703 4.75586L8.16992 0H11.8887L4.51172 5.54883ZM19.6318 4.75586L20.8506 8.53613L13.1689 2.92676C13.1608 2.93306 8.87971 6.24392 6.09668 8.1709L5.30371 5.79297L13.1689 0L19.6318 4.75586Z" fill="#333333"/>
</svg>
