<svg xmlns="http://www.w3.org/2000/svg" width="131" height="20" viewBox="0 0 131 20" fill="none">
<path d="M47.8677 11.4055C47.9635 12.7717 48.2979 13.8581 48.8696 14.6653C49.5639 15.6348 50.5235 16.1194 51.7495 16.1194C52.9903 16.1194 53.943 15.6458 54.6079 14.6985C55.1698 13.9062 55.4963 12.8085 55.5884 11.4055H58.3901C58.3078 12.6385 58.0444 13.7437 57.5991 14.7209C57.0526 15.9126 56.2689 16.83 55.2495 17.4739C54.2379 18.1103 53.0713 18.429 51.7495 18.429C50.4423 18.4289 49.2751 18.1104 48.2485 17.4739C47.2296 16.83 46.4395 15.9157 45.8784 14.7317C45.4183 13.748 45.1469 12.6394 45.064 11.4055H47.8677ZM32.6089 10.8381L31.4487 14.303L28.187 5.76196L28.4644 12.8782V18.2073H25.6724V2.04224H29.3062L32.6089 10.8381ZM42.2231 18.2073H39.4312V12.8782L39.7085 5.75024L34.9438 18.2073H32.939L32.937 18.2004L36.23 8.36938L38.6001 2.04224H42.2231V18.2073ZM66.8813 2.04224C68.7425 2.04224 70.1794 2.46076 71.1909 3.29712C72.2029 4.13338 72.7084 5.34337 72.7085 6.927C72.7085 8.00761 72.4465 8.91499 71.9224 9.64771C71.4055 10.3729 70.6818 10.9312 69.7515 11.3235L73.3735 18.0627V18.2073H70.769L66.5972 9.72485H66.8931C67.8379 9.72479 68.5762 9.48829 69.1079 9.01489C69.6394 8.53391 69.9057 7.87878 69.9058 7.05005C69.9058 6.1841 69.6583 5.51398 69.1636 5.04028C68.6763 4.56662 67.9451 4.32266 66.9702 4.30786H64.0122V9.72485H64.2192L65.3276 11.9788H64.0122V18.2073H61.2104V2.04224H66.8813ZM81.5376 2.04224C83.3395 2.04224 84.7685 2.5125 85.8247 3.45239C86.8881 4.39237 87.4204 5.636 87.4204 7.18286C87.4204 8.76672 86.8994 9.9994 85.8579 10.8801C84.8241 11.7608 83.3727 12.2004 81.5044 12.2004H78.1704V18.2073H75.3677V10.0452H80.3735C81.0499 10.0452 81.6087 9.99943 82.0542 9.92407C82.8013 9.8551 83.3901 9.62948 83.8198 9.24731C84.3441 8.77371 84.6059 8.09314 84.606 7.20532C84.606 6.33197 84.3407 5.63553 83.8091 5.11743C83.2773 4.59193 82.5453 4.32266 81.6147 4.30786H78.1704V7.90747H75.3677V2.04224H81.5376ZM92.6821 8.77075H97.9116V11.0237H92.6821V18.2073H89.8794V2.04224H92.6821V8.77075ZM102.685 18.2073H100.045V2.04224H102.685V18.2073ZM108.811 15.9641H116.554V18.2073H106.008V12.9602H108.811V15.9641ZM124.508 2.04224C126.369 2.04224 127.806 2.46076 128.818 3.29712C129.829 4.13337 130.335 5.34341 130.335 6.927C130.335 8.00761 130.073 8.91499 129.548 9.64771C129.031 10.3728 128.308 10.9313 127.377 11.3235L131 18.0627V18.2073H128.348L124.177 9.72485H124.52C125.465 9.72477 126.203 9.48831 126.735 9.01489C127.266 8.53391 127.533 7.87878 127.533 7.05005C127.533 6.18419 127.285 5.51397 126.791 5.04028C126.303 4.56664 125.572 4.32269 124.597 4.30786H121.639V9.72485H121.798L122.907 11.9788H121.639V18.2073H118.836V2.04224H124.508ZM108.811 8.77075H115.436V10.8225H106.008V6.35278H108.811V8.77075ZM51.7271 1.82056C53.0415 1.82056 54.2054 2.13912 55.2173 2.77563C56.2362 3.40469 57.0228 4.31475 57.5767 5.5061C58.0855 6.59427 58.3633 7.84845 58.4106 9.26782H55.6089C55.5574 7.68799 55.2197 6.46014 54.5962 5.58423C53.9241 4.6295 52.9678 4.15161 51.7271 4.15161C50.5161 4.1517 49.5669 4.62955 48.8804 5.58423C48.2468 6.46774 47.9021 7.69565 47.8462 9.26782H45.0444C45.0933 7.87826 45.3677 6.63939 45.8677 5.55103C46.4289 4.34461 47.2154 3.42289 48.2271 2.78638C49.246 2.14262 50.4127 1.82061 51.7271 1.82056ZM116.477 4.21509H106.008V2.04224H116.477V4.21509Z" fill="white"/>
<path d="M17.5586 10.793L14.6318 20H7.13281L3.59668 17.7441H12.7422L15.4248 9.3291L17.5586 10.793ZM21.0342 9.51172L18.7168 17.0732L15.6074 19.3906L18.4121 10.5488L11.1572 5.42676C11.8952 4.85536 12.431 4.4132 13.1689 3.8418L21.0342 9.51172ZM4.3291 14.5732H12.9248L12.2549 16.9512H2.5L0 9.51172L1.1582 5.79297L4.3291 14.5732ZM4.51172 5.54883L7.13281 13.7803H4.75586L1.70703 4.75586L8.16992 0H11.8887L4.51172 5.54883ZM19.6318 4.75586L20.8506 8.53613L13.1689 2.92676C13.1608 2.93306 8.87971 6.24392 6.09668 8.1709L5.30371 5.79297L13.1689 0L19.6318 4.75586Z" fill="white"/>
</svg>