<svg width="315" height="188" viewBox="0 0 315 188" fill="none" xmlns="http://www.w3.org/2000/svg">
<g opacity="0.8">
<path d="M211.699 46.3849C211.82 49.4757 209.3 52.0848 206.069 52.2111C202.838 52.3373 200.126 49.9292 200.004 46.8385C199.882 43.7477 202.403 41.1386 205.634 41.0123C208.865 40.8861 211.577 43.2941 211.699 46.3849Z" fill="#12C78F"/>
<path d="M211.698 46.3851C211.82 49.4759 209.407 52.0803 206.316 52.2019C203.226 52.3235 200.621 49.9107 200.5 46.82C200.378 43.7292 202.791 41.1248 205.882 41.0032C208.972 40.8816 211.577 43.2944 211.698 46.3851Z" fill="#00DE94"/>
<path d="M210.216 46.4458C210.305 48.7183 208.533 50.6354 206.26 50.7242C203.988 50.8131 202.071 49.0409 201.982 46.7684C201.893 44.496 203.665 42.5789 205.938 42.49C208.21 42.4012 210.127 44.1733 210.216 46.4458Z" fill="#12C78F"/>
</g>
<path d="M297.956 7.74322C296.371 10.2682 293.285 11.1847 291.069 9.79125C288.852 8.39784 288.333 5.22291 289.918 2.69794C291.504 0.172962 294.585 -0.743509 296.806 0.649903C299.027 2.04332 299.542 5.21824 297.956 7.74322Z" fill="#12C78F"/>
<path d="M297.956 7.74396C296.371 10.2689 293.365 11.2322 291.237 9.89486C289.109 8.56224 288.675 5.43408 290.26 2.9091C291.845 0.384124 294.852 -0.579108 296.979 0.753518C299.107 2.09082 299.542 5.21431 297.956 7.73928V7.74396Z" fill="#00F694"/>
<path d="M296.942 7.10275C295.778 8.95908 293.566 9.66513 291.999 8.68787C290.438 7.70594 290.115 5.40541 291.279 3.54908C292.444 1.69276 294.655 0.986699 296.222 1.96396C297.784 2.94589 298.106 5.24643 296.942 7.10275Z" fill="#12C78F"/>
<path d="M177.051 11.008C176.579 13.9913 173.67 16.0066 170.556 15.5109C167.442 15.0153 165.3 12.2004 165.777 9.21718C166.249 6.23397 169.158 4.21867 172.272 4.70964C175.386 5.20528 177.528 8.02016 177.056 11.0034L177.051 11.008Z" fill="#12C78F"/>
<path d="M177.051 11.0071C176.579 13.9903 173.778 16.0243 170.795 15.552C167.811 15.0797 165.777 12.2789 166.25 9.29568C166.722 6.31247 169.523 4.27846 172.506 4.75072C175.489 5.22299 177.523 8.02384 177.051 11.0071Z" fill="#00F694"/>
<path d="M175.625 10.7827C175.279 12.9756 173.217 14.4719 171.024 14.1212C168.83 13.7752 167.334 11.7132 167.685 9.52016C168.031 7.32718 170.093 5.8309 172.286 6.18159C174.479 6.5276 175.975 8.58966 175.625 10.7827Z" fill="#12C78F"/>
<path d="M133.208 4.32792C135.07 7.06799 134.667 10.5936 132.301 12.1974C129.935 13.8059 126.512 12.8895 124.647 10.1494C122.786 7.40933 123.188 3.88371 125.554 2.27989C127.92 0.671382 131.347 1.58785 133.208 4.32792Z" fill="#12C78F"/>
<path d="M133.209 4.32906C135.07 7.06912 134.747 10.5386 132.484 12.077C130.221 13.6154 126.873 12.6428 125.012 9.90738C123.151 7.16732 123.473 3.69781 125.736 2.15945C128 0.621082 131.348 1.59366 133.209 4.32906Z" fill="#00F694"/>
<path d="M132.124 5.06898C133.494 7.08429 133.255 9.63264 131.591 10.7642C129.926 11.8958 127.466 11.1804 126.096 9.16973C124.726 7.1591 124.965 4.60607 126.629 3.47451C128.294 2.34294 130.754 3.05835 132.124 5.06898Z" fill="#12C78F"/>
<path d="M234.478 15.7457C234.45 18.8691 232.528 21.3848 230.185 21.3661C227.842 21.3427 225.972 18.7943 226 15.6662C226.028 12.5427 227.95 10.0271 230.293 10.0458C232.635 10.0691 234.506 12.6175 234.478 15.7457Z" fill="#12C78F"/>
<path d="M234.478 15.7454C234.45 18.8689 232.607 21.3845 230.363 21.3658C228.123 21.3424 226.327 18.7941 226.355 15.6706C226.383 12.5471 228.226 10.0314 230.47 10.0502C232.71 10.0735 234.506 12.6219 234.478 15.7454Z" fill="#00F694"/>
<path d="M233.402 15.7321C233.379 18.028 232.027 19.8797 230.377 19.8656C228.726 19.8516 227.412 17.9766 227.431 15.676C227.454 13.3802 228.806 11.5285 230.456 11.5426C232.107 11.5566 233.425 13.4316 233.402 15.7321Z" fill="#12C78F"/>
<path d="M28.0693 4.96695C30.2249 7.23008 30.6036 10.3723 28.9109 11.9854C27.2182 13.6033 24.0947 13.0796 21.939 10.8165C19.7834 8.55335 19.4047 5.41116 21.0974 3.79798C22.7901 2.18012 25.9136 2.70382 28.0693 4.96695Z" fill="#00CD94"/>
<path d="M28.0692 4.9675C30.2248 7.23063 30.6597 10.3167 29.0371 11.8644C27.4146 13.4121 24.3518 12.8323 22.1962 10.5739C20.0405 8.31076 19.6057 5.22468 21.2282 3.67696C22.8508 2.12924 25.9136 2.70905 28.0692 4.9675Z" fill="#00F694"/>
<path d="M27.2932 5.70605C28.8783 7.37067 29.1963 9.63847 28.0039 10.7747C26.8116 11.9109 24.5577 11.4854 22.9726 9.8255C21.3874 8.16089 21.0648 5.89309 22.2618 4.75685C23.4542 3.62061 25.708 4.04611 27.2932 5.70605Z" fill="#12C78F"/>
<g opacity="0.8">
<path d="M298.472 58.21C299.725 60.8659 298.58 64.0408 295.91 65.3033C293.24 66.5658 290.06 65.4342 288.802 62.7783C287.549 60.1224 288.695 56.9475 291.365 55.685C294.035 54.4225 297.214 55.5541 298.472 58.21Z" fill="#12C78F"/>
<path d="M298.472 58.2106C299.725 60.8665 298.673 63.9993 296.116 65.2057C293.558 66.4121 290.467 65.2384 289.214 62.5825C287.961 59.9266 289.013 56.7938 291.57 55.5874C294.128 54.381 297.219 55.5547 298.472 58.2106Z" fill="#00F694"/>
<path d="M297.247 58.7905C298.168 60.745 297.392 63.0455 295.512 63.9339C293.632 64.8223 291.36 63.9573 290.439 62.0075C289.518 60.0529 290.294 57.7524 292.174 56.864C294.053 55.9756 296.326 56.8406 297.247 58.7905Z" fill="#12C78F"/>
</g>
<g opacity="0.5">
<path d="M36.0077 94.3657C36.162 97.1665 38.6496 99.3081 41.5674 99.1491C44.4852 98.9901 46.7297 96.5914 46.5754 93.7905C46.4211 90.9897 43.9335 88.8481 41.0157 89.0071C38.0979 89.1661 35.8581 91.5648 36.0077 94.3657Z" fill="#12C78F"/>
<path d="M36.0076 94.3663C36.1619 97.1672 38.5467 99.3134 41.3429 99.1638C44.1391 99.0142 46.2807 96.6201 46.1264 93.8146C45.9768 91.0137 43.5874 88.8675 40.7911 89.0171C37.9949 89.1668 35.8533 91.5608 36.0076 94.3663Z" fill="#00DE94"/>
<path d="M37.3449 94.2918C37.4571 96.3539 39.2153 97.9297 41.268 97.8174C43.3208 97.7052 44.8966 95.9471 44.7844 93.885C44.6722 91.8229 42.9187 90.2472 40.8612 90.3594C38.8038 90.4716 37.2327 92.2297 37.3449 94.2918Z" fill="#12C78F"/>
</g>
<g opacity="0.7">
<path d="M45.763 68.06C47.1985 70.4728 50.0789 71.4033 52.1972 70.1408C54.3154 68.8783 54.8718 65.9044 53.441 63.4917C52.0054 61.0789 49.125 60.1484 47.0068 61.4062C44.8886 62.6687 44.3321 65.6426 45.763 68.0553V68.06Z" fill="#12C78F"/>
<path d="M45.763 68.0609C47.1985 70.4737 50.0041 71.4463 52.0382 70.2399C54.0675 69.0335 54.5538 66.0971 53.1183 63.689C51.6828 61.2762 48.8772 60.3036 46.8431 61.51C44.8138 62.7164 44.3275 65.6528 45.763 68.0609Z" fill="#00DE94"/>
<path d="M46.7354 67.4842C47.7875 69.2563 49.8543 69.9764 51.346 69.088C52.8376 68.1996 53.1976 66.044 52.1409 64.2718C51.0888 62.4997 49.022 61.7796 47.5304 62.668C46.0387 63.5564 45.6833 65.712 46.7354 67.4842Z" fill="#12C78F"/>
</g>
<g opacity="0.3">
<path d="M52.0175 137.76C51.8071 140.556 53.5886 142.973 55.9921 143.156C58.4002 143.338 60.5184 141.215 60.7335 138.419C60.9439 135.623 59.1624 133.205 56.7589 133.023C54.3508 132.841 52.2326 134.963 52.0222 137.76H52.0175Z" fill="#12C78F"/>
<path d="M52.0174 137.759C51.807 140.556 53.5043 142.964 55.8096 143.141C58.1149 143.314 60.1536 141.187 60.364 138.391C60.5744 135.594 58.8771 133.186 56.5718 133.009C54.2665 132.836 52.2278 134.963 52.0174 137.759Z" fill="#00DE94"/>
<path d="M53.1256 137.838C52.9713 139.896 54.2197 141.668 55.9125 141.794C57.6052 141.92 59.1061 140.358 59.2605 138.301C59.4148 136.244 58.1663 134.472 56.4736 134.345C54.7809 134.219 53.2799 135.781 53.1256 137.838Z" fill="#12C78F"/>
</g>
<g opacity="0.6">
<path d="M16.0135 71.6616C15.8125 74.4577 17.9354 76.8892 20.7456 77.0903C23.5606 77.2913 26.0014 75.1825 26.2025 72.3863C26.4036 69.5901 24.2854 67.1587 21.4704 66.9576C18.6555 66.7566 16.2146 68.8607 16.0135 71.6616Z" fill="#12C78F"/>
<path d="M16.0135 71.6612C15.8125 74.4574 17.8372 76.8842 20.5305 77.0759C23.2239 77.2676 25.5712 75.1541 25.7723 72.3579C25.9734 69.5617 23.9487 67.1349 21.2553 66.9432C18.5619 66.7515 16.2146 68.865 16.0135 71.6612Z" fill="#00DE94"/>
<path d="M17.3041 71.7557C17.1591 73.813 18.6461 75.5946 20.624 75.7348C22.6066 75.8751 24.3321 74.3227 24.477 72.2653C24.622 70.2079 23.135 68.4264 21.1571 68.2861C19.1745 68.1459 17.449 69.6983 17.3041 71.7557Z" fill="#12C78F"/>
</g>
<g opacity="0.5">
<path d="M270.575 104.37C270.42 107.171 267.933 109.312 265.015 109.153C262.097 108.994 259.857 106.596 260.007 103.795C260.161 100.994 262.649 98.8523 265.567 99.0066C268.484 99.1656 270.729 101.564 270.575 104.365V104.37Z" fill="#12C78F"/>
<path d="M270.575 104.371C270.42 107.172 268.036 109.318 265.239 109.168C262.443 109.019 260.302 106.624 260.456 103.824C260.605 101.023 262.995 98.8765 265.791 99.0262C268.587 99.1758 270.729 101.57 270.575 104.375V104.371Z" fill="#00DE94"/>
<path d="M269.232 104.294C269.12 106.356 267.362 107.932 265.309 107.82C263.257 107.707 261.681 105.949 261.793 103.887C261.905 101.825 263.659 100.249 265.716 100.362C267.769 100.474 269.345 102.232 269.232 104.294Z" fill="#12C78F"/>
</g>
<g opacity="0.7">
<path d="M254.425 73.4667C252.989 75.8795 250.109 76.81 247.99 75.5521C245.872 74.2897 245.316 71.3158 246.747 68.903C248.177 66.4903 251.063 65.5598 253.181 66.8176C255.299 68.0801 255.855 71.0539 254.425 73.4667Z" fill="#12C78F"/>
<path d="M254.425 73.4671C252.989 75.8798 250.184 76.8524 248.15 75.646C246.12 74.4396 245.634 71.5032 247.069 69.0951C248.505 66.687 251.31 65.7098 253.345 66.9162C255.379 68.1225 255.86 71.059 254.425 73.4671Z" fill="#00DE94"/>
<path d="M253.452 72.8868C252.4 74.6589 250.333 75.379 248.837 74.4906C247.345 73.6022 246.99 71.4466 248.042 69.6744C249.094 67.9023 251.161 67.1822 252.657 68.0706C254.149 68.959 254.504 71.1146 253.452 72.8868Z" fill="#12C78F"/>
</g>
<g opacity="0.3">
<path d="M236.287 142.174C236.497 144.971 234.715 147.388 232.312 147.57C229.904 147.753 227.786 145.63 227.57 142.834C227.36 140.037 229.142 137.62 231.545 137.438C233.953 137.255 236.071 139.378 236.287 142.174Z" fill="#12C78F"/>
<path d="M236.287 142.174C236.497 144.97 234.8 147.378 232.494 147.556C230.189 147.729 228.15 145.602 227.94 142.805C227.729 140.009 229.427 137.601 231.732 137.423C234.037 137.25 236.076 139.378 236.287 142.174Z" fill="#00DE94"/>
<path d="M235.183 142.257C235.337 144.315 234.089 146.087 232.396 146.213C230.703 146.339 229.202 144.778 229.048 142.72C228.894 140.663 230.142 138.891 231.835 138.764C233.528 138.638 235.029 140.2 235.183 142.257Z" fill="#12C78F"/>
</g>
<g opacity="0.3">
<path d="M293.477 127.225C292.873 129.965 290.068 131.677 287.206 131.05C284.344 130.424 282.511 127.693 283.115 124.953C283.718 122.213 286.523 120.501 289.385 121.128C292.247 121.755 294.08 124.485 293.477 127.225Z" fill="#12C78F"/>
<path d="M293.477 127.225C292.873 129.965 290.166 131.699 287.426 131.096C284.686 130.493 282.951 127.786 283.554 125.046C284.157 122.306 286.865 120.571 289.605 121.174C292.345 121.777 294.08 124.484 293.481 127.225H293.477Z" fill="#00DE94"/>
<path d="M292.163 126.94C291.718 128.955 289.731 130.232 287.716 129.787C285.7 129.343 284.424 127.356 284.868 125.341C285.312 123.325 287.304 122.049 289.315 122.493C291.33 122.937 292.607 124.924 292.163 126.94Z" fill="#12C78F"/>
</g>
<g opacity="0.6">
<path d="M284.178 77.0629C284.379 79.8591 282.256 82.2905 279.446 82.4916C276.631 82.6927 274.19 80.5838 273.994 77.7877C273.793 74.9915 275.911 72.56 278.726 72.359C281.541 72.1579 283.982 74.2667 284.183 77.0629H284.178Z" fill="#12C78F"/>
<path d="M284.178 77.0626C284.379 79.8587 282.354 82.2855 279.661 82.4772C276.968 82.6689 274.62 80.5554 274.419 77.7593C274.218 74.9631 276.243 72.5363 278.936 72.3446C281.63 72.1529 283.977 74.2664 284.178 77.0626Z" fill="#00DE94"/>
<path d="M282.883 77.157C283.028 79.2144 281.541 80.9959 279.563 81.1362C277.58 81.2765 275.855 79.7241 275.71 77.6667C275.565 75.6093 277.052 73.8278 279.03 73.6875C281.012 73.5472 282.738 75.0996 282.883 77.157Z" fill="#12C78F"/>
</g>
<g opacity="0.6">
<path d="M106.892 67.2257C106.892 70.8401 103.829 73.7719 100.056 73.7719C96.2824 73.7719 93.2196 70.8401 93.2196 67.2257C93.2196 63.6112 96.2824 60.6794 100.056 60.6794C103.829 60.6794 106.892 63.6112 106.892 67.2257Z" fill="#00CD94"/>
<path d="M106.892 67.2257C106.892 70.8401 103.96 73.7719 100.346 73.7719C96.7312 73.7719 93.7993 70.8401 93.7993 67.2257C93.7993 63.6112 96.7312 60.6794 100.346 60.6794C103.96 60.6794 106.892 63.6112 106.892 67.2257Z" fill="#00F694"/>
<path d="M105.162 67.2253C105.162 69.8859 103.006 72.0415 100.346 72.0415C97.6849 72.0415 95.5293 69.8859 95.5293 67.2253C95.5293 64.5648 97.6849 62.4092 100.346 62.4092C103.006 62.4092 105.162 64.5648 105.162 67.2253Z" fill="#12C78F"/>
</g>
<g opacity="0.9">
<path d="M49.6723 33.9825C49.6723 37.597 46.6096 40.5287 42.836 40.5287C39.0625 40.5287 35.9998 37.597 35.9998 33.9825C35.9998 30.3681 39.0625 27.4363 42.836 27.4363C46.6096 27.4363 49.6723 30.3681 49.6723 33.9825Z" fill="#12C78F"/>
<path d="M49.6725 33.9825C49.6725 37.597 46.7406 40.5287 43.1261 40.5287C39.5116 40.5287 36.5797 37.597 36.5797 33.9825C36.5797 30.3681 39.5116 27.4363 43.1261 27.4363C46.7406 27.4363 49.6725 30.3681 49.6725 33.9825Z" fill="#00F694"/>
<path d="M47.9422 33.9822C47.9422 36.6427 45.7866 38.7983 43.126 38.7983C40.4653 38.7983 38.3097 36.6427 38.3097 33.9822C38.3097 31.3216 40.4653 29.166 43.126 29.166C45.7866 29.166 47.9422 31.3216 47.9422 33.9822Z" fill="#12C78F"/>
</g>
<g opacity="0.5">
<path d="M72.1113 104.911C73.1494 108.376 71.5736 111.906 68.595 112.8C65.6164 113.693 62.3572 111.607 61.3192 108.142C60.2811 104.678 61.8569 101.147 64.8355 100.254C67.8141 99.3611 71.0733 101.447 72.1113 104.911Z" fill="#12C78F"/>
<path d="M72.1113 104.912C73.1493 108.376 71.6764 111.879 68.824 112.73C65.9717 113.585 62.8154 111.472 61.7773 108.007C60.7393 104.542 62.2122 101.04 65.0645 100.189C67.9169 99.3332 71.0732 101.447 72.1113 104.912Z" fill="#00F694"/>
<path d="M70.7414 105.324C71.5035 107.872 70.4234 110.444 68.3239 111.075C66.2244 111.702 63.9051 110.149 63.1429 107.601C62.3807 105.053 63.4609 102.481 65.5604 101.85C67.6599 101.223 69.9792 102.775 70.7414 105.324Z" fill="#12C78F"/>
</g>
<path d="M84.6338 30.4062C85.0313 34.002 82.8383 37.1909 79.7381 37.5369C76.6379 37.8783 73.7996 35.2457 73.4021 31.65C73.0047 28.0542 75.1977 24.8653 78.2979 24.5193C81.398 24.1779 84.2364 26.8105 84.6338 30.4062Z" fill="#00CD94"/>
<path d="M84.6337 30.4072C85.0312 34.0029 82.9457 37.1825 79.9764 37.5098C77.0072 37.8371 74.2717 35.1906 73.8743 31.5995C73.4768 28.0038 75.5623 24.8242 78.5315 24.4968C81.5008 24.1695 84.2362 26.8161 84.6337 30.4072Z" fill="#00F694"/>
<path d="M83.2076 30.5661C83.5022 33.2079 81.9685 35.5459 79.7801 35.789C77.5965 36.0322 75.5858 34.087 75.2959 31.4405C75.0013 28.7986 76.535 26.4606 78.7234 26.2175C80.9071 25.9744 82.9177 27.9242 83.2076 30.5661Z" fill="#12C78F"/>
<g opacity="0.9">
<path d="M153.012 28.3623C153.994 31.8411 152.68 35.2592 150.075 35.998C147.471 36.7368 144.557 34.511 143.575 31.0322C142.593 27.5533 143.907 24.1353 146.517 23.3965C149.121 22.6577 152.034 24.8834 153.016 28.3623H153.012Z" fill="#12C78F"/>
<path d="M153.011 28.362C153.993 31.8408 152.768 35.2355 150.271 35.9416C147.774 36.6476 144.955 34.3985 143.973 30.9197C142.991 27.4408 144.216 24.0461 146.713 23.3401C149.21 22.634 152.03 24.8831 153.016 28.362H153.011Z" fill="#00F694"/>
<path d="M151.815 28.6983C152.539 31.256 151.637 33.753 149.799 34.272C147.962 34.791 145.89 33.1357 145.165 30.578C144.441 28.0203 145.343 25.5234 147.181 25.0044C149.014 24.4854 151.09 26.1406 151.815 28.6983Z" fill="#12C78F"/>
</g>
<g opacity="0.5">
<path d="M251.893 88.7426C252.917 92.2121 250.921 95.8546 247.432 96.8833C243.944 97.912 240.287 95.9341 239.268 92.4692C238.244 88.9997 240.241 85.3572 243.729 84.3285C247.217 83.2998 250.874 85.2777 251.893 88.7426Z" fill="#12C78F"/>
<path d="M251.893 88.7429C252.917 92.2124 251.037 95.8222 247.699 96.8088C244.36 97.7954 240.82 95.7801 239.801 92.3152C238.777 88.8457 240.657 85.236 243.995 84.2493C247.334 83.2627 250.874 85.278 251.893 88.7429Z" fill="#00F694"/>
<path d="M250.294 89.2161C251.047 91.7644 249.667 94.4203 247.212 95.1451C244.758 95.8699 242.158 94.3923 241.405 91.8392C240.652 89.2909 242.032 86.635 244.486 85.9102C246.941 85.1855 249.541 86.6677 250.294 89.2161Z" fill="#12C78F"/>
</g>
<path d="M115.911 163.976C115.37 163.82 114.75 163.92 114.173 164.324L111.031 166.501C110.454 166.898 109.835 166.997 109.293 166.841L127.944 172.146C128.485 172.302 129.105 172.196 129.682 171.806L132.823 169.628C133.4 169.231 134.02 169.132 134.561 169.281L115.911 163.976Z" fill="#039954"/>
<path d="M164.735 68.0902L163.424 64.4381C163.161 63.7077 162.655 63.2325 162.057 63.0623L143.406 57.7578C144.005 57.928 144.51 58.4031 144.774 59.1336L146.085 62.7858C146.349 63.5091 146.847 63.9842 147.446 64.1544L166.096 69.4589C165.505 69.2887 164.999 68.8136 164.735 68.0902Z" fill="#28DAA2"/>
<path d="M129.717 176.234C129.176 176.078 128.556 176.178 127.979 176.582L124.837 178.759C124.26 179.156 123.64 179.263 123.092 179.107L141.742 184.411C142.291 184.567 142.911 184.461 143.488 184.064L146.629 181.886C147.206 181.489 147.826 181.39 148.367 181.539L129.717 176.234Z" fill="#039954"/>
<path d="M182.919 66.4191L181.608 62.7669C181.344 62.0365 180.838 61.5684 180.247 61.3982L161.597 56.0938C162.188 56.2639 162.694 56.7391 162.957 57.4624L164.268 61.1146C164.532 61.8379 165.031 62.3131 165.629 62.4833L184.28 67.7878C183.688 67.6176 183.182 67.1424 182.919 66.4191Z" fill="#28DAA2"/>
<path d="M147.913 174.546C147.364 174.39 146.744 174.496 146.167 174.893L135.503 182.268C134.926 182.666 134.306 182.765 133.765 182.616L152.415 187.92C152.957 188.076 153.577 187.977 154.154 187.573L164.818 180.198C165.395 179.801 166.022 179.694 166.563 179.85L147.913 174.546Z" fill="#039954"/>
<path d="M192.278 66.2897C192.014 65.5592 191.508 65.0841 190.917 64.9139L172.267 59.6094C172.858 59.7796 173.364 60.2547 173.627 60.9851L178.08 73.3599C178.344 74.0904 178.85 74.5584 179.441 74.7286L198.091 80.0331C197.5 79.8629 196.994 79.3878 196.731 78.6645L192.278 66.2897Z" fill="#28DAA2"/>
<path d="M184.326 72.1985C185.529 71.3688 186.926 71.8298 187.424 73.2268L198.168 103.054C198.674 104.458 198.097 106.281 196.9 107.11L193.759 109.287C192.555 110.117 191.985 111.94 192.484 113.337L196.937 125.712C197.443 127.116 196.866 128.938 195.662 129.775L192.52 131.945C191.309 132.782 190.74 134.604 191.238 136.001L192.549 139.654C193.048 141.051 192.478 142.873 191.274 143.703L180.61 151.078C179.399 151.915 178.83 153.738 179.328 155.135L180.639 158.787C181.138 160.184 180.568 162.006 179.364 162.836L153.663 180.615C152.459 181.444 151.063 180.983 150.564 179.586L149.253 175.934C148.754 174.537 147.358 174.076 146.147 174.913L135.483 182.288C134.279 183.118 132.883 182.657 132.384 181.26L131.073 177.608C130.575 176.211 129.178 175.75 127.974 176.579L124.833 178.757C123.622 179.593 122.226 179.132 121.727 177.728L117.274 165.354C116.775 163.956 115.372 163.496 114.175 164.325L111.034 166.502C109.83 167.332 108.434 166.871 107.928 165.467L97.184 135.64C96.6853 134.243 97.2551 132.42 98.459 131.591L101.6 129.413C102.804 128.584 103.374 126.761 102.875 125.364L98.4225 112.989C97.9167 111.585 98.4936 109.763 99.6975 108.926L102.839 106.749C104.043 105.919 104.613 104.096 104.114 102.699L102.803 99.0473C102.304 97.6502 102.874 95.8277 104.078 94.998L114.742 87.6227C115.953 86.7859 116.523 84.9634 116.024 83.5663L114.713 79.9142C114.207 78.51 114.784 76.6875 115.981 75.8578L141.682 58.0792C142.886 57.2495 144.283 57.7104 144.788 59.1146L146.099 62.7667C146.598 64.1638 147.994 64.6247 149.205 63.7879L159.869 56.4127C161.073 55.583 162.469 56.0439 162.968 57.441L164.279 61.0931C164.778 62.4902 166.174 62.9511 167.385 62.1143L170.526 59.9443C171.737 59.1075 173.134 59.5684 173.632 60.9726L178.085 73.3474C178.584 74.7444 179.987 75.2054 181.184 74.3756L184.326 72.1985Z" fill="#00C386"/>
<path fill-rule="evenodd" clip-rule="evenodd" d="M158.396 111.412L164.704 112.473L166.865 141.771L149.431 152L139.119 150.696L160.311 138.171L158.396 111.412ZM147.975 99.5193L171.416 104.127L173.5 128.145L168.544 138.763L166.427 110.618L144.917 106.671C146.05 104.075 146.849 102.116 147.975 99.5193ZM122.5 121.642L137.872 141.075L157.702 129.24L158.429 136.67L135.853 150.047L123.271 133.332L122.511 121.642H122.5ZM141.4 90.8083L129.907 116.292L143.594 135.053L138.118 138.334L122.795 118.06L133.009 96.0477L141.4 90.8025V90.8083ZM144.288 89L163.539 92.9817L170.032 101.693L147.095 97.0156C147.095 97.0156 140.508 112.079 135.963 121.213L131.936 115.846L144.288 89Z" fill="white"/>
<path d="M179.379 162.828L153.677 180.607C153.1 181.004 152.48 181.103 151.938 180.954L170.589 186.259C171.137 186.415 171.75 186.315 172.327 185.911L198.029 168.133L179.379 162.828Z" fill="#039954"/>
<path d="M179.345 155.117L180.656 158.769C181.154 160.166 180.585 161.989 179.381 162.819L198.031 168.123C199.235 167.293 199.805 165.471 199.306 164.074L197.995 160.422L179.345 155.117Z" fill="#28DAA2"/>
<path d="M196.897 107.117L193.756 109.294C192.552 110.124 191.982 111.947 192.481 113.344L211.131 118.648C210.632 117.251 211.202 115.429 212.406 114.599L215.548 112.422L196.897 107.117Z" fill="#039954"/>
<path d="M206.074 78.5404C205.81 77.8099 205.304 77.3419 204.713 77.1717L186.063 71.8672C186.654 72.0374 187.16 72.5125 187.423 73.2359L198.167 103.063C198.673 104.467 198.096 106.29 196.899 107.119L215.55 112.424C216.754 111.594 217.324 109.772 216.818 108.368L206.074 78.5404Z" fill="#28DAA2"/>
<path d="M191.284 143.703L180.62 151.078C179.409 151.915 178.84 153.738 179.338 155.135L197.989 160.439C197.49 159.042 198.06 157.22 199.271 156.383L209.935 149.008L191.284 143.703Z" fill="#039954"/>
<path d="M195.653 129.758L192.512 131.928C191.301 132.765 190.731 134.587 191.23 135.984L209.88 141.289C209.381 139.892 209.951 138.069 211.162 137.232L214.304 135.062L195.653 129.758Z" fill="#039954"/>
<path d="M191.239 135.992L192.55 139.644C193.049 141.041 192.479 142.864 191.275 143.694L209.926 148.998C211.13 148.168 211.699 146.346 211.201 144.949L209.89 141.297L191.239 135.992Z" fill="#28DAA2"/>
<path d="M192.476 113.328L196.929 125.703C197.435 127.107 196.858 128.93 195.654 129.766L214.304 135.071C215.515 134.234 216.085 132.412 215.579 131.007L211.126 118.633L192.476 113.328Z" fill="#28DAA2"/>
</svg>
