<svg width="24" height="24" viewBox="0 0 24 24" fill="none" xmlns="http://www.w3.org/2000/svg">
<path d="M12 14C8.41015 14 5 11.0899 5 7.5V4.55556C5 4.03739 5 3.77831 5.09369 3.57738C5.19305 3.36431 5.36431 3.19305 5.57738 3.09369C5.77831 3 6.03739 3 6.55556 3H17.4444C17.9626 3 18.2217 3 18.4226 3.09369C18.6357 3.19305 18.8069 3.36431 18.9063 3.57738C19 3.77831 19 4.03739 19 4.55556V7.5C19 11.0899 15.5899 14 12 14ZM12 14V21M17 21H7M22 5V8M2 5V8" stroke="#333333" stroke-width="2" stroke-linecap="round" stroke-linejoin="round"/>
<path d="M9 6V8" stroke="#333333" stroke-width="2" stroke-linecap="round" stroke-linejoin="round"/>
<path d="M15 6V8" stroke="#333333" stroke-width="2" stroke-linecap="round" stroke-linejoin="round"/>
</svg>
