<svg width="42" height="42" viewBox="0 0 42 42" fill="none" xmlns="http://www.w3.org/2000/svg">
<path d="M21.0083 2.625C15.9345 2.62513 11.3412 4.68187 8.01611 8.00684L34.0015 33.9932C37.3268 30.6679 39.3833 26.0742 39.3833 21C39.3833 10.8518 31.1565 2.625 21.0083 2.625Z" fill="#00C386"/>
<path d="M34.0017 33.993C30.6765 37.3182 26.0827 39.3749 21.0086 39.3749C10.8604 39.3749 2.63362 31.1482 2.63362 20.9999C2.63362 15.9258 4.69032 11.3321 8.01554 8.00684L34.0017 33.993Z" fill="#F32D50"/>
<path fill-rule="evenodd" clip-rule="evenodd" d="M32.9998 10.9777C32.9998 9.89037 32.1184 9.00893 31.0311 9.00893L19.8942 9.00893C18.8068 9.00893 17.9254 9.89037 17.9254 10.9777C17.9254 12.065 18.8068 12.9464 19.8942 12.9464L26.2781 12.9464L18.502 20.7225C17.7332 21.4913 17.7332 22.7379 18.502 23.5067C19.2709 24.2756 20.5174 24.2756 21.2863 23.5067L29.0623 15.7307L29.0623 22.1146C29.0623 23.2019 29.9438 24.0834 31.0311 24.0834C32.1184 24.0834 32.9998 23.2019 32.9998 22.1146V10.9777Z" fill="white"/>
<path fill-rule="evenodd" clip-rule="evenodd" d="M10.9779 32.9911C9.89061 32.9911 9.00917 32.1096 9.00917 31.0223L9.00917 19.8854C9.00917 18.7981 9.89061 17.9166 10.9779 17.9166C12.0652 17.9166 12.9467 18.7981 12.9467 19.8854L12.9467 26.2693L20.7227 18.4933C21.4916 17.7244 22.7381 17.7244 23.507 18.4933C24.2758 19.2621 24.2758 20.5086 23.507 21.2775L15.7309 29.0536L22.1149 29.0536C23.2022 29.0536 24.0836 29.935 24.0836 31.0223C24.0836 32.1096 23.2022 32.9911 22.1149 32.9911H10.9779Z" fill="white"/>
</svg>
