<svg width="24" height="24" viewBox="0 0 24 24" fill="none" xmlns="http://www.w3.org/2000/svg">
<path d="M21.2099 15.8901C20.5737 17.3946 19.5787 18.7203 18.3118 19.7514C17.0449 20.7825 15.5447 21.4875 13.9424 21.8048C12.34 22.1222 10.6843 22.0422 9.12006 21.5719C7.55578 21.1015 6.13054 20.2551 4.96893 19.1067C3.80733 17.9583 2.94473 16.5428 2.45655 14.984C1.96837 13.4252 1.86948 11.7706 2.16851 10.1647C2.46755 8.55885 3.15541 7.0507 4.17196 5.7721C5.18851 4.4935 6.5028 3.48339 7.99992 2.83007M21.2387 8.17323C21.639 9.1397 21.8846 10.1614 21.9679 11.2009C21.9885 11.4577 21.9988 11.5861 21.9478 11.7018C21.9052 11.7984 21.8208 11.8898 21.7279 11.94C21.6167 12.0001 21.4778 12.0001 21.1999 12.0001H12.7999C12.5199 12.0001 12.3799 12.0001 12.2729 11.9456C12.1788 11.8976 12.1023 11.8211 12.0544 11.7271C11.9999 11.6201 11.9999 11.4801 11.9999 11.2001V2.80007C11.9999 2.5222 11.9999 2.38327 12.06 2.27205C12.1102 2.17915 12.2016 2.09476 12.2982 2.05216C12.4139 2.00117 12.5423 2.01146 12.7991 2.03205C13.8386 2.11539 14.8603 2.36095 15.8267 2.76127C17.04 3.26382 18.1424 4.00042 19.071 4.929C19.9996 5.85759 20.7362 6.95998 21.2387 8.17323Z" stroke="#686475" stroke-width="2" stroke-linecap="round" stroke-linejoin="round"/>
</svg>
