<svg width="160" height="160" viewBox="0 0 160 160" fill="none" xmlns="http://www.w3.org/2000/svg">
<path fill-rule="evenodd" clip-rule="evenodd" d="M117.333 70.8966L133.565 82.0175L111.304 151.987H54.2606L27.3623 134.842H96.9271L117.333 70.8966ZM100.173 29.1926L160 72.2866L142.376 129.745L118.724 147.354L140.057 80.1641L84.8693 41.2405C90.4837 36.8975 94.5591 33.5358 100.173 29.1926ZM8.81155 44.0208L32.9274 110.747H98.3184L93.217 128.819H19.0143L0 72.2866L8.81155 44.0208ZM90.4344 0L34.3187 42.1672L54.2606 104.723H36.1737L12.9855 36.1433L62.1446 0H90.4344ZM100.173 0L149.333 36.1433L158.609 64.8726L100.173 22.2421C100.173 22.2421 67.5666 47.4346 46.3767 62.0923L40.3477 44.0208L100.173 0Z" fill="white"/>
</svg>
