<svg width="459" height="70" viewBox="0 0 459 70" fill="none" xmlns="http://www.w3.org/2000/svg">
<g id="logo_text_black">
<path id="Text" d="M167.705 39.92C168.041 44.7021 169.21 48.506 171.213 51.3312C173.646 54.7246 177.009 56.421 181.304 56.421C185.651 56.421 188.988 54.7633 191.318 51.4474C193.287 48.6741 194.433 44.8317 194.755 39.92H204.571C204.282 44.2359 203.356 48.1038 201.796 51.5245C199.882 55.6954 197.139 58.9085 193.568 61.1622C190.023 63.3899 185.935 64.504 181.304 64.504C176.724 64.504 172.636 63.39 169.039 61.1622C165.469 58.9085 162.701 55.7084 160.735 51.5636C159.122 48.1204 158.171 44.2393 157.88 39.92H167.705ZM381.219 55.8771H408.348V63.7267H371.401V45.3615H381.219V55.8771ZM114.245 37.9357L110.18 50.0607L98.7533 20.1661L99.723 45.0743V63.7257H89.9427V7.14856H102.672L114.245 37.9357ZM147.927 63.7257H138.147V45.0743L139.118 20.1271L122.428 63.7257H115.404L115.395 63.7032L126.931 29.2941L135.237 7.14856H147.927V63.7257ZM234.32 7.14856C240.84 7.14856 245.874 8.61181 249.417 11.5392C252.963 14.4665 254.735 18.7026 254.735 24.2462C254.735 28.0282 253.815 31.2013 251.979 33.7657C250.168 36.3045 247.633 38.2609 244.372 39.6339L257.063 63.2208V63.7257H247.938L233.322 34.0382H234.359C237.67 34.0382 240.257 33.2088 242.12 31.5509C243.983 29.8671 244.914 27.5744 244.914 24.673C244.914 21.6422 244.048 19.2977 242.315 17.6398C240.607 15.982 238.045 15.1271 234.63 15.0753H224.268V34.0382H224.991L228.874 41.9269H224.268V63.7257H214.449V7.14856H234.32ZM285.667 7.14856C291.98 7.14856 296.987 8.79315 300.687 12.0831C304.413 15.3732 306.276 19.7256 306.276 25.1398C306.276 30.6834 304.452 34.9966 300.803 38.0792C297.181 41.162 292.096 42.7032 285.55 42.7032H273.869V63.7257H264.049V35.1583H280.873L280.944 35.1573L281.588 35.1583C283.958 35.1583 285.914 34.9992 287.475 34.7355C290.093 34.4942 292.156 33.7051 293.661 32.3673C295.499 30.7094 296.417 28.3256 296.417 25.2169C296.417 22.1603 295.486 19.7255 293.623 17.9122C291.76 16.073 289.199 15.1272 285.939 15.0753H273.869V27.6759H264.049V7.14856H285.667ZM324.71 30.6964H343.034V38.5851H324.71V63.7257H314.891V7.14856H324.71V30.6964ZM359.756 63.7257H350.507V7.14856H359.756V63.7257ZM436.214 7.14856C442.735 7.14856 447.767 8.61184 451.312 11.5392C454.856 14.4665 456.629 18.7025 456.629 24.2462C456.629 28.0282 455.71 31.2013 453.873 33.7657C452.062 36.3045 449.526 38.2609 446.266 39.6339L458.957 63.2208V63.7257H449.668L435.053 34.0382H436.253C439.565 34.0382 442.153 33.2088 444.016 31.5509C445.878 29.8671 446.81 27.5743 446.81 24.673C446.81 21.6422 445.943 19.2977 444.209 17.6398C442.502 15.9819 439.94 15.1271 436.525 15.0753H426.162V34.0382H426.721L430.605 41.9269H426.162V63.7257H416.343V7.14856H436.214ZM381.219 30.6974H404.428V37.88H371.401V22.2355H381.219V30.6974ZM181.227 6.37219C185.832 6.37219 189.907 7.4861 193.453 9.71399C197.023 11.9158 199.778 15.102 201.719 19.2726C203.502 23.0813 204.477 27.4706 204.643 32.4386H194.826C194.645 26.909 193.463 22.6109 191.279 19.545C188.924 16.2033 185.574 14.5323 181.227 14.5323C176.984 14.5324 173.659 16.2033 171.253 19.545C169.033 22.6375 167.826 26.9355 167.63 32.4386H157.813C157.984 27.575 158.945 23.2382 160.697 19.4288C162.663 15.2064 165.418 11.9809 168.962 9.75305C172.533 7.49932 176.621 6.37224 181.227 6.37219ZM408.077 14.7521H371.401V7.14856H408.077V14.7521Z" fill="black"/>
<path id="Logo" d="M61.5166 37.7754L51.2637 70.0029H24.9912L12.6016 62.1064H44.6416L54.04 32.6533L61.5166 37.7754ZM73.6924 33.2939L65.5752 59.7578L54.6816 67.8682L64.5068 36.9219L39.0889 18.9941C41.6746 16.9939 43.5519 15.4457 46.1377 13.4453L73.6924 33.2939ZM15.166 51.0068H45.2832L42.9336 59.3311H8.75781L0 33.293L4.05859 20.2744L15.166 51.0068ZM15.8066 19.4219L24.9912 48.2334H16.6611L5.98145 16.6475L28.6221 0H41.6523L15.8066 19.4219ZM68.7783 16.6475L73.0508 29.8789L46.1367 10.2441C46.0946 10.2767 31.1053 21.857 21.3594 28.5986L18.583 20.2754L46.1367 0L68.7783 16.6475Z" fill="#00C386"/>
</g>
</svg>
