<svg width="40" height="40" viewBox="0 0 40 40" fill="none" xmlns="http://www.w3.org/2000/svg">
<path fill-rule="evenodd" clip-rule="evenodd" d="M29.3332 17.7242L33.3912 20.5044L27.826 37.9969H13.5651L6.84057 33.7106H24.2318L29.3332 17.7242ZM25.0434 7.29816L40 18.0717L35.5941 32.4363L29.681 36.8384L35.0143 20.041L21.2173 10.3101C22.6209 9.22438 23.6398 8.38395 25.0434 7.29816ZM2.20289 11.0052L8.23184 27.6867H24.5796L23.3043 32.2046H4.75359L0 18.0717L2.20289 11.0052ZM22.6086 0L8.57967 10.5418L13.5651 26.1807H9.04343L3.24638 9.03582L15.5361 0H22.6086ZM25.0434 0L37.3332 9.03582L39.6521 16.2181L25.0434 5.56053C25.0434 5.56053 16.8917 11.8586 11.5942 15.5231L10.0869 11.0052L25.0434 0Z" fill="#00C386"/>
</svg>
